999
DXF file: drw0002.dxf
999
Pro/ENGINEER 2015200 by Parametric Technology Corporation
  0
SECTION
  2
HEADER
  9
$ACADVER
  1
AC1027
  9
$DWGCODEPAGE
  3
ANSI_1252
  9
$EXTMAX
 10
22.0
 20
17.0
 30
0.0
  9
$EXTMIN
 10
0.0
 20
0.0
 30
0.0
  9
$LIMMIN
 10
0.0
 20
0.0
  9
$LIMMAX
 10
22.0
 20
17.0
  9
$VIEWCTR
 10
11.0
 20
8.5
  9
$VIEWSIZE
 40
17.0
  9
$CLAYER
  8
0
  9
$LTSCALE
 40
1.21
  9
$CELTYPE
  6
BYLAYER
  9
$DIMSCALE
 40
1.0
  9
$DIMASZ
 40
0.1875
  9
$DIMEXO
 40
0.0625
  9
$DIMDLI
 40
0.836
  9
$DIMEXE
 40
0.125
  9
$DIMCEN
 40
0.198
  9
$DIMLFAC
 40
1.0
  9
$DIMBLK
  1
_CLOSED
  9
$DIMALT
 70
0
  9
$DIMALTF
 40
25.4
  9
$DIMTXT
 40
0.15625
  9
$DIMTOL
 70
0
  9
$DIMLIM
 70
0
  9
$DIMTFAC
 40
1.0
  9
$DIMGAP
 40
0.09
  9
$DIMDSEP
 70
46
  9
$AUNITS
 70
0
  9
$PDMODE
 70
3
  9
$PDSIZE
 40
0.3125
  9
$HANDSEED
  5
279
  9
$TILEMODE
 70
1
  9
$MEASUREMENT
 70
0
  9
$INSUNITS
 70
1
  0
ENDSEC
  0
SECTION
  2
CLASSES
  0
CLASS
  1
ACDBDICTIONARYWDFLT
  2
AcDbDictionaryWithDefault
  3
AutoCAD 2000
 90
0
 91
1
280
0
281
0
  0
CLASS
  1
ACDBPLACEHOLDER
  2
AcDbPlaceHolder
  3
AutoCAD 2000
 90
0
 91
1
280
0
281
0
  0
CLASS
  1
LAYOUT
  2
AcDbLayout
  3
AutoCAD 2000
 90
0
 91
0
280
0
281
0
  0
ENDSEC
  0
SECTION
  2
TABLES
  0
TABLE
  2
VPORT
  5
8
100
AcDbSymbolTable
 70
2
  0
VPORT
  5
1F4
100
AcDbSymbolTableRecord
100
AcDbViewportTableRecord
  2
*ACTIVE
 70
0
 10
0.0
 20
0.0
 11
1.0
 21
1.0
 12
11.0
 22
8.5
 13
0.0
 23
0.0
 14
1.0
 24
1.0
 15
0.0
 25
0.0
 16
0.0
 26
0.0
 36
1.0
 17
0.0
 27
0.0
 37
0.0
 40
17.0
 41
1.2941176471
 42
50.0
 43
0.0
 44
0.0
 50
0.0
 51
0.0
 71
0
 72
100
 73
1
 74
1
 75
0
 76
0
 77
0
 78
0
  0
ENDTAB
  0
TABLE
  2
LTYPE
  5
5
100
AcDbSymbolTable
 70
6
  0
LTYPE
  5
14
100
AcDbSymbolTableRecord
100
AcDbLinetypeTableRecord
  2
BYBLOCK
 70
0
  3

 72
65
 73
0
 40
0.0
  0
LTYPE
  5
15
100
AcDbSymbolTableRecord
100
AcDbLinetypeTableRecord
  2
BYLAYER
 70
0
  3

 72
65
 73
0
 40
0.0
  0
LTYPE
  5
16
100
AcDbSymbolTableRecord
100
AcDbLinetypeTableRecord
  2
CONTINUOUS
 70
64
  3
Solid line
 72
65
 73
0
 40
0.0
  0
LTYPE
  5
1F5
100
AcDbSymbolTableRecord
100
AcDbLinetypeTableRecord
  2
CENTER
 70
64
  3
____ _ ____ _ ____ _ ____ _ ____ _ ____ _ ____
 72
65
 73
4
 40
0.6
 49
0.375
 74
0
 49
-0.075
 74
0
 49
0.075
 74
0
 49
-0.075
 74
0
  0
LTYPE
  5
1F6
100
AcDbSymbolTableRecord
100
AcDbLinetypeTableRecord
  2
HIDDEN
 70
64
  3
- - - - - - - - - - - - - - - - - - - -
 72
65
 73
2
 40
0.2
 49
0.1
 74
0
 49
-0.1
 74
0
  0
LTYPE
  5
1F7
100
AcDbSymbolTableRecord
100
AcDbLinetypeTableRecord
  2
PHANTOM
 70
64
  3
_____ _ _ _____ _ _ _____ _ _ _____
 72
65
 73
6
 40
0.8
 49
0.45
 74
0
 49
-0.05
 74
0
 49
0.1
 74
0
 49
-0.05
 74
0
 49
0.1
 74
0
 49
-0.05
 74
0
  0
LTYPE
  5
1F8
100
AcDbSymbolTableRecord
100
AcDbLinetypeTableRecord
  2
DOT
 70
64
  3
. . . . . . . . . . . . . . . . . . . .
 72
65
 73
2
 40
0.2
 49
0.1
 74
0
 49
-0.1
 74
0
  0
LTYPE
  5
1F9
100
AcDbSymbolTableRecord
100
AcDbLinetypeTableRecord
  2
DASHED
 70
64
  3
- - - - - - - - - - - - - - - - - - - -
 72
65
 73
2
 40
0.2
 49
0.1
 74
0
 49
-0.1
 74
0
  0
ENDTAB
  0
TABLE
  2
LAYER
  5
2
100
AcDbSymbolTable
 70
36
  0
LAYER
  5
10
100
AcDbSymbolTableRecord
100
AcDbLayerTableRecord
  2
0
 70
0
 62
7
  6
CONTINUOUS
370
-3
390
F
  0
LAYER
  5
1FA
100
AcDbSymbolTableRecord
100
AcDbLayerTableRecord
  2
DEFAULT_1
 70
0
 62
7
  6
CENTER
370
-3
390
F
  0
LAYER
  5
1FB
100
AcDbSymbolTableRecord
100
AcDbLayerTableRecord
  2
DEFAULT_2
 70
0
 62
8
  6
HIDDEN
370
-3
390
F
  0
LAYER
  5
1FC
100
AcDbSymbolTableRecord
100
AcDbLayerTableRecord
  2
DEFAULT_3
 70
0
 62
7
  6
PHANTOM
370
-3
390
F
  0
LAYER
  5
1FD
100
AcDbSymbolTableRecord
100
AcDbLayerTableRecord
  2
01___PRT_ALL_DTM_PLN
 70
0
 62
7
  6
CONTINUOUS
370
-3
390
F
  0
LAYER
  5
1FE
100
AcDbSymbolTableRecord
100
AcDbLayerTableRecord
  2
01___PRT_DEF_DTM_PLN
 70
0
 62
7
  6
CONTINUOUS
370
-3
390
F
  0
LAYER
  5
1FF
100
AcDbSymbolTableRecord
100
AcDbLayerTableRecord
  2
02___PRT_ALL_AXES
 70
0
 62
7
  6
CONTINUOUS
370
-3
390
F
  0
LAYER
  5
200
100
AcDbSymbolTableRecord
100
AcDbLayerTableRecord
  2
03___PRT_ALL_CURVES
 70
0
 62
7
  6
CONTINUOUS
370
-3
390
F
  0
LAYER
  5
201
100
AcDbSymbolTableRecord
100
AcDbLayerTableRecord
  2
04___PRT_ALL_DTM_PNT
 70
0
 62
7
  6
CONTINUOUS
370
-3
390
F
  0
LAYER
  5
202
100
AcDbSymbolTableRecord
100
AcDbLayerTableRecord
  2
05___PRT_ALL_DTM_CSYS
 70
0
 62
7
  6
CONTINUOUS
370
-3
390
F
  0
LAYER
  5
203
100
AcDbSymbolTableRecord
100
AcDbLayerTableRecord
  2
05___PRT_DEF_DTM_CSYS
 70
0
 62
7
  6
CONTINUOUS
370
-3
390
F
  0
LAYER
  5
204
100
AcDbSymbolTableRecord
100
AcDbLayerTableRecord
  2
06___PRT_ALL_SURFS
 70
0
 62
7
  6
CONTINUOUS
370
-3
390
F
  0
LAYER
  5
205
100
AcDbSymbolTableRecord
100
AcDbLayerTableRecord
  2
3_ALL_SYMBOLS
 70
0
 62
7
  6
CONTINUOUS
370
-3
390
F
  0
ENDTAB
  0
TABLE
  2
STYLE
  5
3
100
AcDbSymbolTable
 70
1
  0
STYLE
  5
11
100
AcDbSymbolTableRecord
100
AcDbTextStyleTableRecord
  2
STANDARD
 70
0
 40
0.0
 41
0.8
 50
0.0
 71
0
 42
0.2
  3
txt
  4

  0
STYLE
  5
206
100
AcDbSymbolTableRecord
100
AcDbTextStyleTableRecord
  2
TEXTSTYLE_1
 70
0
 40
0.0
 41
0.8
 50
0.0
 71
0
 42
0.2
  3
gdt
  4

  0
ENDTAB
  0
TABLE
  2
VIEW
  5
6
100
AcDbSymbolTable
 70
0
  0
ENDTAB
  0
TABLE
  2
UCS
  5
7
100
AcDbSymbolTable
 70
0
  0
ENDTAB
  0
TABLE
  2
APPID
  5
9
100
AcDbSymbolTable
 70
1
  0
APPID
  5
207
100
AcDbSymbolTableRecord
100
AcDbRegAppTableRecord
  2
ACAD
 70
0
  0
ENDTAB
  0
TABLE
  2
BLOCK_RECORD
  5
1
100
AcDbSymbolTable
 70
0
  0
BLOCK_RECORD
  5
208
100
AcDbSymbolTableRecord
100
AcDbBlockTableRecord
  2
*Model_Space
  0
BLOCK_RECORD
  5
209
100
AcDbSymbolTableRecord
100
AcDbBlockTableRecord
  2
*Paper_Space
  0
ENDTAB
  0
TABLE
  2
DIMSTYLE
  5
A
100
AcDbSymbolTable
 70
1
100
AcDbDimStyleTable
 71
0
  0
DIMSTYLE
105
20A
100
AcDbSymbolTableRecord
100
AcDbDimStyleTableRecord
  2
STANDARD
 70
0
  3

  4

 40
1.0
 41
0.1875
 42
0.0625
 43
0.38
 44
0.125
 45
0.0
 46
0.0
 47
0.01
 48
0.01
140
0.15625
141
0.09
142
0.0
143
25.4
144
1.0
145
0.0
146
1.0
147
0.09
 71
0.0
 72
0.0
 73
1
 74
1
 75
0
 76
0
 77
0
 78
4
170
0
171
2
172
0
173
0
174
0
175
0
176
0
177
0
178
0
270
2
271
2
272
2
273
2
274
2
275
0
280
0
281
0
282
0
283
1
284
4
285
0
286
0
287
3
288
0
340
11
278
46
  0
ENDTAB
  0
ENDSEC
  0
SECTION
  2
BLOCKS
  0
BLOCK
  5
20
100
AcDbEntity
  8
0
100
AcDbBlockBegin
  2
*Model_Space
 70
0
 10
0.0
 20
0.0
 30
0.0
  3
*Model_Space
  1

  0
ENDBLK
  5
21
100
AcDbEntity
  8
0
100
AcDbBlockEnd
  0
BLOCK
  5
1C
100
AcDbEntity
  8
0
100
AcDbBlockBegin
  2
*Paper_Space
 70
0
 10
0.0
 20
0.0
 30
0.0
  3
*Paper_Space
  1

  0
ENDBLK
  5
1D
100
AcDbEntity
  8
0
100
AcDbBlockEnd
  0
ENDSEC
  0
SECTION
  2
ENTITIES
  0
LINE
  5
20B
100
AcDbEntity
  8
0
100
AcDbLine
 62
7
  6
CONTINUOUS
 10
0.0
 20
0.0
 11
0.0
 21
17.0
  0
LINE
  5
20C
100
AcDbEntity
  8
0
100
AcDbLine
 62
7
  6
CONTINUOUS
 10
0.0
 20
0.0
 11
22.0
 21
0.0
  0
LINE
  5
20D
100
AcDbEntity
  8
0
100
AcDbLine
 62
7
  6
CONTINUOUS
 10
0.0
 20
17.0
 11
22.0
 21
17.0
  0
LINE
  5
20E
100
AcDbEntity
  8
0
100
AcDbLine
 62
7
  6
CONTINUOUS
 10
22.0
 20
0.0
 11
22.0
 21
17.0
  0
LINE
  5
20F
100
AcDbEntity
  8
DEFAULT_2
100
AcDbLine
 62
8
  6
HIDDEN
 10
5.6631551898
 20
6.8997560586
 11
5.6631551898
 21
6.4835844159
  0
LWPOLYLINE
  5
210
100
AcDbEntity
  8
0
100
AcDbPolyline
 62
7
  6
CONTINUOUS
 90
16
 70
0
 10
5.8712410082
 20
5.4664748061
 10
5.8744761419
 20
5.4297245343
 10
5.8869822809
 20
5.3864950454
 10
5.9084331461
 20
5.3469105375
 10
5.937754943
 20
5.3128797418
 10
5.9734788412
 20
5.2860608393
 10
6.0140675496
 20
5.267500147
 10
6.0574507951
 20
5.2580971067
 10
6.1019400253
 20
5.2581772425
 10
6.14528449
 20
5.2677332858
 10
6.1858011152
 20
5.2864351411
 10
6.2214322029
 20
5.3133796633
 10
6.2506330784
 20
5.3475111142
 10
6.2719482231
 20
5.3871737203
 10
6.2843034532
 20
5.4304439284
 10
6.2874126573
 20
5.4664764961
  0
LINE
  5
211
100
AcDbEntity
  8
DEFAULT_2
100
AcDbLine
 62
8
  6
HIDDEN
 10
5.8712410111
 20
7.10784188
 11
5.8712410111
 21
6.6916702373
  0
LINE
  5
212
100
AcDbEntity
  8
0
100
AcDbLine
 62
7
  6
CONTINUOUS
 10
5.8712410111
 20
6.6916702373
 11
5.8712410115
 21
5.4664896492
  0
LINE
  5
213
100
AcDbEntity
  8
DEFAULT_2
100
AcDbLine
 62
8
  6
HIDDEN
 10
5.8712410111
 20
6.2754985946
 11
6.2874126538
 21
6.2754985946
  0
LINE
  5
214
100
AcDbEntity
  8
03___PRT_ALL_CURVES
100
AcDbLine
 62
8
  6
HIDDEN
 10
6.0793268325
 20
6.4839338137
 11
6.0793268325
 21
5.6515905283
  0
LINE
  5
215
100
AcDbEntity
  8
DEFAULT_2
100
AcDbLine
 62
8
  6
HIDDEN
 10
5.6631551898
 20
6.4835844159
 11
6.4954984752
 21
6.4835844159
  0
LINE
  5
216
100
AcDbEntity
  8
0
100
AcDbLine
 62
7
  6
CONTINUOUS
 10
6.2874126538
 20
6.6916702373
 11
6.2874126534
 21
5.4664892732
  0
LINE
  5
217
100
AcDbEntity
  8
DEFAULT_2
100
AcDbLine
 62
8
  6
HIDDEN
 10
6.2874126538
 20
6.6916702373
 11
6.2874126538
 21
7.10784188
  0
LINE
  5
218
100
AcDbEntity
  8
DEFAULT_2
100
AcDbLine
 62
8
  6
HIDDEN
 10
6.4954984752
 20
6.4835844159
 11
6.4954984752
 21
6.8997560586
  0
LINE
  5
219
100
AcDbEntity
  8
DEFAULT_2
100
AcDbLine
 62
8
  6
HIDDEN
 10
5.6631551898
 20
6.8997560586
 11
6.4954984752
 21
6.8997560586
  0
LINE
  5
21A
100
AcDbEntity
  8
DEFAULT_2
100
AcDbLine
 62
8
  6
HIDDEN
 10
5.8712410111
 20
7.10784188
 11
6.2874126538
 21
7.10784188
  0
LINE
  5
21B
100
AcDbEntity
  8
0
100
AcDbLine
 62
7
  6
CONTINUOUS
 10
5.8793268325
 20
14.5956604047
 11
5.8293268328
 21
14.4582865347
  0
LINE
  5
21C
100
AcDbEntity
  8
0
100
AcDbLine
 62
7
  6
CONTINUOUS
 10
6.2874126538
 20
12.7269312396
 11
5.8712410111
 21
12.7269312396
  0
LWPOLYLINE
  5
21D
100
AcDbEntity
  8
0
100
AcDbPolyline
 62
7
  6
CONTINUOUS
 90
15
 70
0
 10
5.8712410111
 20
12.1030250453
 10
5.876415704
 20
12.0569650278
 10
5.8917205652
 20
12.0130132529
 10
5.9165054551
 20
11.9734689472
 10
5.9495154746
 20
11.9404070926
 10
5.9890621671
 20
11.9155415685
 10
6.0330797661
 20
11.9001585502
 10
6.079334428
 20
11.8949410992
 10
6.1255869434
 20
11.9001615218
 10
6.1695989319
 20
11.9155451519
 10
6.2091397139
 20
11.9404083076
 10
6.2421459191
 20
11.9734660657
 10
6.266930067
 20
12.0130069399
 10
6.2822365643
 20
12.0569588708
 10
6.2874126538
 20
12.1030250453
  0
LINE
  5
21E
100
AcDbEntity
  8
0
100
AcDbLine
 62
7
  6
CONTINUOUS
 10
5.8293268325
 20
14.3456604047
 11
5.8293268325
 21
14.4582865337
  0
LINE
  5
21F
100
AcDbEntity
  8
0
100
AcDbLine
 62
7
  6
CONTINUOUS
 10
6.2793268325
 20
14.5956604047
 11
6.2293268328
 21
14.4582865347
  0
LINE
  5
220
100
AcDbEntity
  8
DEFAULT_2
100
AcDbLine
 62
8
  6
HIDDEN
 10
6.2798106824
 20
14.594331038
 11
6.2302945327
 21
14.4582865347
  0
LINE
  5
221
100
AcDbEntity
  8
0
100
AcDbLine
 62
7
  6
CONTINUOUS
 10
6.2802945323
 20
14.5956604047
 11
6.2798106824
 21
14.594331038
  0
LINE
  5
222
100
AcDbEntity
  8
0
100
AcDbLine
 62
7
  6
CONTINUOUS
 10
5.8712410111
 20
14.3456604047
 11
5.8712410111
 21
13.8098801995
  0
LINE
  5
223
100
AcDbEntity
  8
0
100
AcDbLine
 62
7
  6
CONTINUOUS
 10
5.8712410111
 20
13.5601772139
 11
5.8712410111
 21
12.1030250453
  0
LINE
  5
224
100
AcDbEntity
  8
0
100
AcDbLine
 62
7
  6
CONTINUOUS
 10
5.9293268325
 20
14.3456604047
 11
5.9293268325
 21
14.4582865337
  0
LINE
  5
225
100
AcDbEntity
  8
03___PRT_ALL_CURVES
100
AcDbLine
 62
8
  6
HIDDEN
 10
6.0793268325
 20
13.559274525
 11
6.0793268325
 21
12.3107595969
  0
LWPOLYLINE
  5
226
100
AcDbEntity
  8
DEFAULT_2
100
AcDbPolyline
 62
8
  6
HIDDEN
 90
15
 70
0
 10
5.8712410111
 20
12.1030250453
 10
5.8764171006
 20
12.1490912198
 10
5.8917235979
 20
12.1930431507
 10
5.9165077458
 20
12.2325840249
 10
5.949513951
 20
12.2656417829
 10
5.9890547331
 20
12.2905049386
 10
6.0330667215
 20
12.3058885687
 10
6.0793192369
 20
12.3111089913
 10
6.1255738988
 20
12.3058915404
 10
6.1695914978
 20
12.290508522
 10
6.2091381904
 20
12.265642998
 10
6.2421482099
 20
12.2325811433
 10
6.2669330997
 20
12.1930368377
 10
6.2822379609
 20
12.1490850628
 10
6.2874126538
 20
12.1030250453
  0
LINE
  5
227
100
AcDbEntity
  8
0
100
AcDbLine
 62
7
  6
CONTINUOUS
 10
6.2293268325
 20
14.3456604047
 11
6.2293268325
 21
14.4582865337
  0
LINE
  5
228
100
AcDbEntity
  8
DEFAULT_2
100
AcDbLine
 62
8
  6
HIDDEN
 10
6.2302945323
 20
14.3456604047
 11
6.2302945323
 21
14.4582865337
  0
LINE
  5
229
100
AcDbEntity
  8
0
100
AcDbLine
 62
7
  6
CONTINUOUS
 10
6.2874126538
 20
14.3456604047
 11
6.2874126538
 21
13.8098801995
  0
LINE
  5
22A
100
AcDbEntity
  8
0
100
AcDbLine
 62
7
  6
CONTINUOUS
 10
6.2874126538
 20
13.5601772139
 11
6.2874126538
 21
12.1030250453
  0
LINE
  5
22B
100
AcDbEntity
  8
0
100
AcDbLine
 62
7
  6
CONTINUOUS
 10
6.3293268325
 20
14.3456604047
 11
6.3293268325
 21
14.4582865337
  0
LINE
  5
22C
100
AcDbEntity
  8
0
100
AcDbLine
 62
7
  6
CONTINUOUS
 10
6.3302945323
 20
14.3456604047
 11
6.3302945323
 21
14.4582865337
  0
LINE
  5
22D
100
AcDbEntity
  8
0
100
AcDbLine
 62
7
  6
CONTINUOUS
 10
6.2874126538
 20
13.559274525
 11
5.8712410111
 21
13.559274525
  0
LINE
  5
22E
100
AcDbEntity
  8
0
100
AcDbLine
 62
7
  6
CONTINUOUS
 10
5.2469835471
 20
13.5601772139
 11
6.9116701179
 21
13.5601772139
  0
LINE
  5
22F
100
AcDbEntity
  8
0
100
AcDbLine
 62
7
  6
CONTINUOUS
 10
5.8793268325
 20
14.5956604047
 11
5.9293268321
 21
14.4582865347
  0
LINE
  5
230
100
AcDbEntity
  8
0
100
AcDbLine
 62
7
  6
CONTINUOUS
 10
6.5829208612
 20
13.8098801995
 11
5.5757328038
 21
13.8098801995
  0
LINE
  5
231
100
AcDbEntity
  8
0
100
AcDbLine
 62
7
  6
CONTINUOUS
 10
6.2793268325
 20
14.5956604047
 11
6.3293268321
 21
14.4582865347
  0
LINE
  5
232
100
AcDbEntity
  8
0
100
AcDbLine
 62
7
  6
CONTINUOUS
 10
6.2802945323
 20
14.5956604047
 11
6.3302945319
 21
14.4582865347
  0
LINE
  5
233
100
AcDbEntity
  8
0
100
AcDbLine
 62
7
  6
CONTINUOUS
 10
5.8712410111
 20
14.1375745833
 11
6.2874126538
 21
14.1375745833
  0
LINE
  5
234
100
AcDbEntity
  8
02___PRT_ALL_AXES
100
AcDbLine
 62
8
  6
HIDDEN
 10
6.3302945323
 20
14.3456604047
 11
6.2293268325
 21
14.3456604047
  0
LINE
  5
235
100
AcDbEntity
  8
02___PRT_ALL_AXES
100
AcDbLine
 62
8
  6
HIDDEN
 10
5.9293268325
 20
14.3456604047
 11
5.8293268325
 21
14.3456604047
  0
LINE
  5
236
100
AcDbEntity
  8
0
100
AcDbLine
 62
7
  6
CONTINUOUS
 10
5.6631551898
 20
14.3456604047
 11
6.4954984752
 21
14.3456604047
  0
LINE
  5
237
100
AcDbEntity
  8
0
100
AcDbLine
 62
7
  6
CONTINUOUS
 10
5.8293268325
 20
14.4582865337
 11
5.9293268325
 21
14.4582865337
  0
LINE
  5
238
100
AcDbEntity
  8
0
100
AcDbLine
 62
7
  6
CONTINUOUS
 10
6.2293268325
 20
14.4582865337
 11
6.3302945323
 21
14.4582865337
  0
LWPOLYLINE
  5
239
100
AcDbEntity
  8
0
100
AcDbPolyline
 62
7
  6
CONTINUOUS
 90
17
 70
0
 10
13.6774321557
 20
5.6693265861
 10
13.6211153083
 20
5.6906772147
 10
13.5558306572
 20
5.7286003429
 10
13.4984300911
 20
5.7776863322
 10
13.4508860815
 20
5.8363923089
 10
13.4147051432
 20
5.9027009435
 10
13.391171699
 20
5.9744498712
 10
13.3809578211
 20
6.0492310349
 10
13.3844642545
 20
6.1245906783
 10
13.4015039924
 20
6.1980943994
 10
13.4315718708
 20
6.267316294
 10
13.473670837
 20
6.3299930062
 10
13.5263846442
 20
6.3840068615
 10
13.5879630865
 20
6.4275671387
 10
13.6562909149
 20
6.4592772574
 10
13.7291091915
 20
6.4780848206
 10
13.7963626306
 20
6.4835844159
  0
LINE
  5
23A
100
AcDbEntity
  8
0
100
AcDbLine
 62
7
  6
CONTINUOUS
 10
13.7963626306
 20
5.5097899601
 11
13.7963626306
 21
5.4233970102
  0
LINE
  5
23B
100
AcDbEntity
  8
0
100
AcDbLine
 62
7
  6
CONTINUOUS
 10
13.7963626306
 20
6.4835844159
 11
13.7963626306
 21
6.8997560586
  0
LINE
  5
23C
100
AcDbEntity
  8
02___PRT_ALL_AXES
100
AcDbLine
 62
7
  6
CONTINUOUS
 10
15.4150917957
 20
6.4416702373
 11
15.5277179247
 21
6.4416702373
  0
LINE
  5
23D
100
AcDbEntity
  8
0
100
AcDbLine
 62
7
  6
CONTINUOUS
 10
13.7963626306
 20
6.4835844159
 11
14.6296086049
 21
6.4835844159
  0
LINE
  5
23E
100
AcDbEntity
  8
0
100
AcDbLine
 62
7
  6
CONTINUOUS
 10
14.8793115905
 20
6.4835844159
 11
15.4150917957
 21
6.4835844159
  0
LINE
  5
23F
100
AcDbEntity
  8
03___PRT_ALL_CURVES
100
AcDbLine
 62
8
  6
HIDDEN
 10
14.628705916
 20
6.4839338137
 11
13.7963626306
 21
6.4839338137
  0
LINE
  5
240
100
AcDbEntity
  8
0
100
AcDbLine
 62
7
  6
CONTINUOUS
 10
15.6650917957
 20
6.8916702373
 11
15.5277179247
 21
6.8416702373
  0
LINE
  5
241
100
AcDbEntity
  8
02___PRT_ALL_AXES
100
AcDbLine
 62
7
  6
CONTINUOUS
 10
15.4150917957
 20
6.5416702373
 11
15.5277179247
 21
6.5416702373
  0
LINE
  5
242
100
AcDbEntity
  8
0
100
AcDbLine
 62
7
  6
CONTINUOUS
 10
14.628705916
 20
6.4835844159
 11
14.628705916
 21
6.8997560586
  0
LINE
  5
243
100
AcDbEntity
  8
0
100
AcDbLine
 62
7
  6
CONTINUOUS
 10
14.6296086049
 20
7.5240135227
 11
14.6296086049
 21
5.8593269519
  0
LINE
  5
244
100
AcDbEntity
  8
02___PRT_ALL_AXES
100
AcDbLine
 62
7
  6
CONTINUOUS
 10
15.4150917957
 20
6.8416702373
 11
15.5277179247
 21
6.8416702373
  0
LINE
  5
245
100
AcDbEntity
  8
0
100
AcDbLine
 62
7
  6
CONTINUOUS
 10
15.6650917957
 20
6.4916702373
 11
15.5277179247
 21
6.4416702373
  0
LWPOLYLINE
  5
246
100
AcDbEntity
  8
0
100
AcDbPolyline
 62
7
  6
CONTINUOUS
 90
20
 70
0
 10
13.7963626306
 20
6.8997560586
 10
13.677316445
 20
6.8911922806
 10
13.553366244
 20
6.8634738525
 10
13.4350162969
 20
6.8171839495
 10
13.325056119
 20
6.7533843186
 10
13.2260817109
 20
6.6735575189
 10
13.1404261992
 20
6.5795777816
 10
13.0701003739
 20
6.473658442
 10
13.0167388058
 20
6.3582735034
 10
12.981579469
 20
6.2361000167
 10
12.9654457467
 20
6.1099719889
 10
12.9687214734
 20
5.9828340323
 10
12.9913353719
 20
5.8576728191
 10
13.0327574124
 20
5.7374298235
 10
13.0920157498
 20
5.6249215159
 10
13.1677240472
 20
5.5227662366
 10
13.2581159571
 20
5.4333377068
 10
13.3610906241
 20
5.3587179031
 10
13.4742577567
 20
5.3006528857
 10
13.5882408468
 20
5.2622237158
  0
LINE
  5
247
100
AcDbEntity
  8
0
100
AcDbLine
 62
7
  6
CONTINUOUS
 10
14.6296086049
 20
6.8997560586
 11
13.7963626306
 21
6.8997560586
  0
LINE
  5
248
100
AcDbEntity
  8
0
100
AcDbLine
 62
7
  6
CONTINUOUS
 10
14.8793115905
 20
6.8997560586
 11
15.4150917957
 21
6.8997560586
  0
LINE
  5
249
100
AcDbEntity
  8
02___PRT_ALL_AXES
100
AcDbLine
 62
7
  6
CONTINUOUS
 10
15.4150917957
 20
6.9416702373
 11
15.5277179247
 21
6.9416702373
  0
LINE
  5
24A
100
AcDbEntity
  8
0
100
AcDbLine
 62
7
  6
CONTINUOUS
 10
15.6650917957
 20
6.4916702373
 11
15.5277179247
 21
6.5416702373
  0
LINE
  5
24B
100
AcDbEntity
  8
0
100
AcDbLine
 62
7
  6
CONTINUOUS
 10
14.8793115905
 20
7.195264266
 11
14.8793115905
 21
6.1880762086
  0
LINE
  5
24C
100
AcDbEntity
  8
0
100
AcDbLine
 62
7
  6
CONTINUOUS
 10
15.6650917957
 20
6.8916702373
 11
15.5277179247
 21
6.9416702373
  0
LINE
  5
24D
100
AcDbEntity
  8
0
100
AcDbLine
 62
7
  6
CONTINUOUS
 10
15.2070059743
 20
6.4835844159
 11
15.2070059743
 21
6.8997560586
  0
LINE
  5
24E
100
AcDbEntity
  8
02___PRT_ALL_AXES
100
AcDbLine
 62
8
  6
HIDDEN
 10
15.4150917957
 20
6.4416702373
 11
15.4150917957
 21
6.5416702373
  0
LINE
  5
24F
100
AcDbEntity
  8
0
100
AcDbLine
 62
7
  6
CONTINUOUS
 10
15.4150917957
 20
6.2754985946
 11
15.4150917957
 21
7.10784188
  0
LINE
  5
250
100
AcDbEntity
  8
02___PRT_ALL_AXES
100
AcDbLine
 62
8
  6
HIDDEN
 10
15.4150917957
 20
6.8416702373
 11
15.4150917957
 21
6.9416702373
  0
LINE
  5
251
100
AcDbEntity
  8
0
100
AcDbLine
 62
7
  6
CONTINUOUS
 10
15.5277179247
 20
6.9416702373
 11
15.5277179247
 21
6.8416702373
  0
LINE
  5
252
100
AcDbEntity
  8
0
100
AcDbLine
 62
7
  6
CONTINUOUS
 10
15.5277179247
 20
6.5416702373
 11
15.5277179247
 21
6.4416702373
  0
ARC
  5
253
100
AcDbEntity
  8
DEFAULT_2
100
AcDbCircle
 62
8
  6
HIDDEN
 10
6.0793268325
 20
6.6916702373
 40
0.8323432854
100
AcDbArc
 50
255.4959445822
 51
284.5040553985
  0
ARC
  5
254
100
AcDbEntity
  8
0
100
AcDbCircle
 62
7
  6
CONTINUOUS
 10
6.0793268325
 20
6.6916702373
 40
0.8323432854
100
AcDbArc
 50
284.5040553985
 51
255.4959445822
  0
CIRCLE
  5
255
100
AcDbEntity
  8
DEFAULT_2
100
AcDbCircle
 62
8
  6
HIDDEN
 10
6.0793268325
 20
6.6916702373
 40
0.5035940287
  0
ARC
  5
256
100
AcDbEntity
  8
DEFAULT_2
100
AcDbCircle
 62
8
  6
HIDDEN
 10
6.0793268325
 20
6.6916702373
 40
0.2080858214
100
AcDbArc
 50
179.9993061427
 51
0.0006938573
  0
ARC
  5
257
100
AcDbEntity
  8
DEFAULT_2
100
AcDbCircle
 62
8
  6
HIDDEN
 10
5.8712410111
 20
6.8997560586
 40
0.2080858214
100
AcDbArc
 50
90.0
 51
180.0
  0
ARC
  5
258
100
AcDbEntity
  8
DEFAULT_2
100
AcDbCircle
 62
8
  6
HIDDEN
 10
5.8712410111
 20
6.4835844159
 40
0.2080858214
100
AcDbArc
 50
180.0
 51
270.0
  0
ARC
  5
259
100
AcDbEntity
  8
DEFAULT_2
100
AcDbCircle
 62
8
  6
HIDDEN
 10
6.2874126538
 20
6.4835844159
 40
0.2080858214
100
AcDbArc
 50
270.0
 51
360.0
  0
ARC
  5
25A
100
AcDbEntity
  8
DEFAULT_2
100
AcDbCircle
 62
8
  6
HIDDEN
 10
6.2874126538
 20
6.8997560586
 40
0.2080858214
100
AcDbArc
 50
0.0
 51
90.0
  0
ARC
  5
25B
100
AcDbEntity
  8
0
100
AcDbCircle
 62
7
  6
CONTINUOUS
 10
6.0793268325
 20
6.6916677173
 40
0.2080810471
100
AcDbArc
 50
0.0006938573
 51
179.9993061427
  0
CIRCLE
  5
25C
100
AcDbEntity
  8
02___PRT_ALL_AXES
100
AcDbCircle
 62
8
  6
HIDDEN
 10
6.2793268325
 20
6.8916702373
 40
0.05
  0
CIRCLE
  5
25D
100
AcDbEntity
  8
02___PRT_ALL_AXES
100
AcDbCircle
 62
8
  6
HIDDEN
 10
5.8793268325
 20
6.8916702373
 40
0.05
  0
CIRCLE
  5
25E
100
AcDbEntity
  8
02___PRT_ALL_AXES
100
AcDbCircle
 62
8
  6
HIDDEN
 10
6.2802945323
 20
6.4916702373
 40
0.05
  0
CIRCLE
  5
25F
100
AcDbEntity
  8
02___PRT_ALL_AXES
100
AcDbCircle
 62
8
  6
HIDDEN
 10
5.8793268325
 20
6.4916702373
 40
0.05
  0
ARC
  5
260
100
AcDbEntity
  8
0
100
AcDbCircle
 62
7
  6
CONTINUOUS
 10
6.5829208612
 20
13.4686194525
 40
0.341260747
100
AcDbArc
 50
15.5626967649
 51
90.0
  0
ARC
  5
261
100
AcDbEntity
  8
0
100
AcDbCircle
 62
7
  6
CONTINUOUS
 10
5.5757328038
 20
13.4686194525
 40
0.341260747
100
AcDbArc
 50
90.0
 51
164.4373032351
  0
ARC
  5
262
100
AcDbEntity
  8
0
100
AcDbCircle
 62
7
  6
CONTINUOUS
 10
6.2874126538
 20
14.3456604047
 40
0.2080858214
100
AcDbArc
 50
270.0
 51
360.0
  0
ARC
  5
263
100
AcDbEntity
  8
0
100
AcDbCircle
 62
7
  6
CONTINUOUS
 10
5.8712410111
 20
14.3456604047
 40
0.2080858214
100
AcDbArc
 50
180.0
 51
270.0
  0
ARC
  5
264
100
AcDbEntity
  8
DEFAULT_2
100
AcDbCircle
 62
8
  6
HIDDEN
 10
6.1209439964
 20
12.5604625785
 40
0.166468661
100
AcDbArc
 50
359.9992672545
 51
89.9999999362
  0
ARC
  5
265
100
AcDbEntity
  8
DEFAULT_2
100
AcDbCircle
 62
8
  6
HIDDEN
 10
6.0377096686
 20
12.5604625785
 40
0.166468661
100
AcDbArc
 50
90.0000000638
 51
179.9992686927
  0
ARC
  5
266
100
AcDbEntity
  8
0
100
AcDbCircle
 62
7
  6
CONTINUOUS
 10
14.5380508435
 20
6.1880762086
 40
0.341260747
100
AcDbArc
 50
285.5626967649
 51
360.0
  0
ARC
  5
267
100
AcDbEntity
  8
0
100
AcDbCircle
 62
7
  6
CONTINUOUS
 10
14.5380508435
 20
7.195264266
 40
0.341260747
100
AcDbArc
 50
0.0
 51
74.4373032351
  0
ARC
  5
268
100
AcDbEntity
  8
0
100
AcDbCircle
 62
7
  6
CONTINUOUS
 10
15.4150917957
 20
6.4835844159
 40
0.2080858214
100
AcDbArc
 50
180.0
 51
270.0
  0
ARC
  5
269
100
AcDbEntity
  8
0
100
AcDbCircle
 62
7
  6
CONTINUOUS
 10
15.4150917957
 20
6.8997560586
 40
0.2080858214
100
AcDbArc
 50
90.0
 51
180.0
  0
ARC
  5
26A
100
AcDbEntity
  8
0
100
AcDbCircle
 62
7
  6
CONTINUOUS
 10
13.6298939735
 20
5.5097899602
 40
0.1664686571
100
AcDbArc
 50
0.0
 51
73.4071745171
  0
ARC
  5
26B
100
AcDbEntity
  8
0
100
AcDbCircle
 62
7
  6
CONTINUOUS
 10
13.6298939735
 20
5.4233970102
 40
0.1664686571
100
AcDbArc
 50
255.5097038315
 51
360.0
  0
SPLINE
  5
26C
100
AcDbEntity
  8
DEFAULT_2
100
AcDbSpline
 62
8
  6
HIDDEN
 70
0
 71
3
 72
29
 73
25
 74
0
 42
0.0000001
 43
0.0000001
 44
0.0000000001
 40
0.0
 40
0.0
 40
0.0
 40
0.0
 40
0.0624823753
 40
0.0937572611
 40
0.1250311124
 40
0.1875079053
 40
0.2187822546
 40
0.2500553977
 40
0.3125246433
 40
0.3437982547
 40
0.3750706313
 40
0.4375340308
 40
0.4999967576
 40
0.5624594859
 40
0.6249228698
 40
0.6561952398
 40
0.6874688333
 40
0.7499380703
 40
0.781211208
 40
0.812485539
 40
0.8749623203
 40
0.9062362856
 40
0.9375120446
 40
1.0
 40
1.0
 40
1.0
 40
1.0
 10
6.1209439965
 20
5.4664868544
 30
0.0
 10
6.1209439942
 20
5.4637184031
 30
0.0
 10
6.120540002
 20
5.4595523843
 30
0.0
 10
6.1192699565
 20
5.4541549535
 30
0.0
 10
6.1175063508
 20
5.4488954792
 30
0.0
 10
6.1149624937
 20
5.4439289739
 30
0.0
 10
6.1117783646
 20
5.4393887658
 30
0.0
 10
6.1081749724
 20
5.4351712176
 30
0.0
 10
6.1039344096
 20
5.4315395478
 30
0.0
 10
6.0992487564
 20
5.4285738555
 30
0.0
 10
6.0942894432
 20
5.4260855716
 30
0.0
 10
6.0876372563
 20
5.4239982439
 30
0.0
 10
6.0793246409
 20
5.4230961706
 30
0.0
 10
6.071012125
 20
5.4239991417
 30
0.0
 10
6.0643601599
 20
5.4260871773
 30
0.0
 10
6.0594011221
 20
5.4285760045
 30
0.0
 10
6.0547157687
 20
5.4315421656
 30
0.0
 10
6.0504755808
 20
5.4351742756
 30
0.0
 10
6.0468726417
 20
5.4393922077
 30
0.0
 10
6.0436889526
 20
5.4439327201
 30
0.0
 10
6.0411455759
 20
5.4488994835
 30
0.0
 10
6.0393825219
 20
5.4541591811
 30
0.0
 10
6.0381128543
 20
5.4595570184
 30
0.0
 10
6.0377096571
 20
5.4637233735
 30
0.0
 10
6.0377096684
 20
5.4664920721
 30
0.0
  0
SPLINE
  5
26D
100
AcDbEntity
  8
DEFAULT_2
100
AcDbSpline
 62
8
  6
HIDDEN
 70
0
 71
3
 72
29
 73
25
 74
0
 42
0.0000001
 43
0.0000001
 44
0.0000000001
 40
0.0
 40
0.0
 40
0.0
 40
0.0
 40
0.0624826065
 40
0.0937576595
 40
0.1250317194
 40
0.1875101152
 40
0.2187847086
 40
0.2500580945
 40
0.3125281705
 40
0.3438018858
 40
0.3750743042
 40
0.4375362106
 40
0.4999967668
 40
0.5624573251
 40
0.6249192163
 40
0.6561916271
 40
0.6874653239
 40
0.7499353926
 40
0.7812087732
 40
0.8124833482
 40
0.8749617323
 40
0.906235905
 40
0.9375118239
 40
1.0
 40
1.0
 40
1.0
 40
1.0
 10
6.0377096684
 20
5.4664920721
 30
0.0
 10
6.0377096708
 20
5.4692663004
 30
0.0
 10
6.0381155458
 20
5.4734408972
 30
0.0
 10
6.0393872786
 20
5.4788497389
 30
0.0
 10
6.0411512588
 20
5.4841212914
 30
0.0
 10
6.043691876
 20
5.4891019014
 30
0.0
 10
6.0468697709
 20
5.4936605589
 30
0.0
 10
6.0504656418
 20
5.4978995831
 30
0.0
 10
6.054698812
 20
5.5015573222
 30
0.0
 10
6.0593808866
 20
5.5045503236
 30
0.0
 10
6.0643396521
 20
5.5070653022
 30
0.0
 10
6.0709991084
 20
5.5091800079
 30
0.0
 10
6.0793290249
 20
5.5100951601
 30
0.0
 10
6.0876588395
 20
5.5091790994
 30
0.0
 10
6.0943180688
 20
5.5070636791
 30
0.0
 10
6.0992765559
 20
5.5045481574
 30
0.0
 10
6.1039583282
 20
5.501554688
 30
0.0
 10
6.1081911234
 20
5.4978965128
 30
0.0
 10
6.1117865421
 20
5.4936571078
 30
0.0
 10
6.1149639994
 20
5.4890981499
 30
0.0
 10
6.1175041409
 20
5.4841172852
 30
0.0
 10
6.1192675712
 20
5.4788455106
 30
0.0
 10
6.1205389286
 20
5.4734362632
 30
0.0
 10
6.120944008
 20
5.46926133
 30
0.0
 10
6.1209439965
 20
5.4664868544
 30
0.0
  0
SPLINE
  5
26E
100
AcDbEntity
  8
DEFAULT_2
100
AcDbSpline
 62
8
  6
HIDDEN
 70
0
 71
3
 72
37
 73
33
 74
0
 42
0.0000001
 43
0.0000001
 44
0.0000000001
 40
0.0
 40
0.0
 40
0.0
 40
0.0
 40
0.030923013
 40
0.0618538205
 40
0.0927934801
 40
0.1237441024
 40
0.1547348048
 40
0.1857889898
 40
0.2169054958
 40
0.2480856331
 40
0.2793449921
 40
0.3106900002
 40
0.3421121006
 40
0.3736036074
 40
0.4051591068
 40
0.4367663224
 40
0.4999963635
 40
0.5632264025
 40
0.5948336319
 40
0.6263891351
 40
0.6578806492
 40
0.6893027455
 40
0.7206477725
 40
0.7519071491
 40
0.7830872942
 40
0.8142037916
 40
0.8452579837
 40
0.8762486994
 40
0.9071994104
 40
0.9381399592
 40
0.9690726769
 40
1.0
 40
1.0
 40
1.0
 40
1.0
 10
5.8712410115
 20
5.4664896492
 30
0.0
 10
5.8712409949
 20
5.473141599
 30
0.0
 10
5.8719159361
 20
5.4864567273
 30
0.0
 10
5.8749190468
 20
5.5062223981
 30
0.0
 10
5.879872811
 20
5.5255997767
 30
0.0
 10
5.8867472767
 20
5.5443960828
 30
0.0
 10
5.8954999316
 20
5.5624217459
 30
0.0
 10
5.9060130699
 20
5.5795211084
 30
0.0
 10
5.9181839752
 20
5.5955345231
 30
0.0
 10
5.9319112173
 20
5.6102969814
 30
0.0
 10
5.947075693
 20
5.6236522131
 30
0.0
 10
5.9635067807
 20
5.6355011957
 30
0.0
 10
5.981047806
 20
5.6457347418
 30
0.0
 10
5.9995377725
 20
5.6542424374
 30
0.0
 10
6.0188067261
 20
5.6609239704
 30
0.0
 10
6.0452591932
 20
5.6673521037
 30
0.0
 10
6.0793246045
 20
5.6706427808
 30
0.0
 10
6.1133900871
 20
5.667352809
 30
0.0
 10
6.1398426897
 20
5.660925219
 30
0.0
 10
6.1591117868
 20
5.6542440849
 30
0.0
 10
6.1776019366
 20
5.6457367839
 30
0.0
 10
6.195143181
 20
5.6355036035
 30
0.0
 10
6.2115745241
 20
5.6236549636
 30
0.0
 10
6.2267392939
 20
5.6103000516
 30
0.0
 10
6.2404668567
 20
5.5955378867
 30
0.0
 10
6.2526381107
 20
5.5795247355
 30
0.0
 10
6.2631516214
 20
5.5624255987
 30
0.0
 10
6.2719046872
 20
5.5444001111
 30
0.0
 10
6.2787796523
 20
5.5256037544
 30
0.0
 10
6.283733872
 20
5.5062258581
 30
0.0
 10
6.2867377511
 20
5.4864587374
 30
0.0
 10
6.2874125462
 20
5.4731422585
 30
0.0
 10
6.2874126534
 20
5.4664893815
 30
0.0
  0
SPLINE
  5
26F
100
AcDbEntity
  8
0
100
AcDbSpline
 62
7
  6
CONTINUOUS
 70
0
 71
3
 72
35
 73
31
 74
0
 42
0.0000001
 43
0.0000001
 44
0.0000000001
 40
0.0
 40
0.0
 40
0.0
 40
0.0
 40
0.0616945035
 40
0.1235578835
 40
0.1546067143
 40
0.1857311258
 40
0.2169206174
 40
0.2481669581
 40
0.279478646
 40
0.3108573573
 40
0.3422904416
 40
0.3737684056
 40
0.4052872817
 40
0.4368386065
 40
0.4999193625
 40
0.5630001131
 40
0.5945514478
 40
0.626070323
 40
0.6575482896
 40
0.6889813653
 40
0.7203600908
 40
0.7516717915
 40
0.7829181382
 40
0.8141076214
 40
0.8452320426
 40
0.8762808904
 40
0.9072701659
 40
0.9382221525
 40
0.9691324793
 40
1.0
 40
1.0
 40
1.0
 40
1.0
 10
6.2874126534
 20
5.4664892732
 30
0.0
 10
6.2874126863
 20
5.4531813811
 30
0.0
 10
6.2847024529
 20
5.4264618768
 30
0.0
 10
6.2748020161
 20
5.3943752696
 30
0.0
 10
6.2631527334
 20
5.3702466096
 30
0.0
 10
6.2526435291
 20
5.3530282332
 30
0.0
 10
6.2404783522
 20
5.3368852336
 30
0.0
 10
6.2267561573
 20
5.321986398
 30
0.0
 10
6.2115960198
 20
5.3084930659
 30
0.0
 10
6.1951691753
 20
5.2965075809
 30
0.0
 10
6.1776304033
 20
5.2861459235
 30
0.0
 10
6.1591395702
 20
5.2775257331
 30
0.0
 10
6.1398671959
 20
5.2707511581
 30
0.0
 10
6.1134133535
 20
5.2642296568
 30
0.0
 10
6.0793290593
 20
5.260886815
 30
0.0
 10
6.0452446924
 20
5.2642289415
 30
0.0
 10
6.0187907136
 20
5.270749893
 30
0.0
 10
5.999518195
 20
5.2775240646
 30
0.0
 10
5.9810271787
 20
5.2861438577
 30
0.0
 10
5.9634881866
 20
5.2965051488
 30
0.0
 10
5.9470610886
 20
5.3084902842
 30
0.0
 10
5.9319006512
 20
5.3219833204
 30
0.0
 10
5.9181781577
 20
5.3368817747
 30
0.0
 10
5.9060125519
 20
5.3530248466
 30
0.0
 10
5.8955032757
 20
5.3702417624
 30
0.0
 10
5.8867521149
 20
5.3883689468
 30
0.0
 10
5.87987775
 20
5.4072485744
 30
0.0
 10
5.8749229797
 20
5.4266889663
 30
0.0
 10
5.8719174615
 20
5.446495856
 30
0.0
 10
5.8712411193
 20
5.4598312225
 30
0.0
 10
5.8712410115
 20
5.4664895407
 30
0.0
  0
SPLINE
  5
270
100
AcDbEntity
  8
DEFAULT_2
100
AcDbSpline
 62
8
  6
HIDDEN
 70
0
 71
3
 72
63
 73
59
 74
0
 42
0.0000001
 43
0.0000001
 44
0.0000000001
 40
0.0
 40
0.0
 40
0.0
 40
0.0
 40
0.0050273938
 40
0.0102410807
 40
0.0158616297
 40
0.0220683555
 40
0.0289906422
 40
0.0367165002
 40
0.0453081038
 40
0.0548018117
 40
0.0651998944
 40
0.07649053
 40
0.0886677379
 40
0.1017244815
 40
0.1156474024
 40
0.1304186565
 40
0.1460200125
 40
0.1624267916
 40
0.1796030455
 40
0.1975058442
 40
0.2160936524
 40
0.2353278756
 40
0.2755694022
 40
0.2964931732
 40
0.3178928976
 40
0.3397192523
 40
0.3619186892
 40
0.407224681
 40
0.4533919889
 40
0.4999961117
 40
0.5466002875
 40
0.5927677168
 40
0.6380739465
 40
0.6602735295
 40
0.6821000481
 40
0.7034999684
 40
0.7244239486
 40
0.7646659415
 40
0.7839004321
 40
0.8024885368
 40
0.8203916369
 40
0.8375682168
 40
0.8539753414
 40
0.8695770378
 40
0.8843486576
 40
0.8982719433
 40
0.9113290569
 40
0.9235066767
 40
0.9347976586
 40
0.9451961827
 40
0.9546902414
 40
0.9632823503
 40
0.9710085841
 40
0.9779313842
 40
0.9841389244
 40
0.9897602461
 40
0.9949752069
 40
1.0
 40
1.0
 40
1.0
 40
1.0
 10
6.2874126534
 20
12.5604632611
 30
0.0
 10
6.2874126616
 20
12.5597292015
 30
0.0
 10
6.2872371685
 20
12.5582283671
 30
0.0
 10
6.2864514636
 20
12.5560317937
 30
0.0
 10
6.2851606002
 20
12.5538886501
 30
0.0
 10
6.2833807796
 20
12.551796105
 30
0.0
 10
6.281120485
 20
12.5497457253
 30
0.0
 10
6.2783831484
 20
12.5477325464
 30
0.0
 10
6.2751736579
 20
12.5457509489
 30
0.0
 10
6.2714981775
 20
12.5437993991
 30
0.0
 10
6.267357766
 20
12.541899987
 30
0.0
 10
6.2627621366
 20
12.5400698623
 30
0.0
 10
6.257726953
 20
12.5383085979
 30
0.0
 10
6.2522663193
 20
12.5366112502
 30
0.0
 10
6.2463929254
 20
12.5349755025
 30
0.0
 10
6.2401186981
 20
12.5334029889
 30
0.0
 10
6.2334584048
 20
12.5318862689
 30
0.0
 10
6.2264258486
 20
12.5304289578
 30
0.0
 10
6.2190356424
 20
12.5290484993
 30
0.0
 10
6.2113061754
 20
12.5277580438
 30
0.0
 10
6.2032583478
 20
12.5265577363
 30
0.0
 10
6.1919608054
 20
12.5250436908
 30
0.0
 10
6.1802941509
 20
12.5237265887
 30
0.0
 10
6.1682938139
 20
12.5225735449
 30
0.0
 10
6.1589607236
 20
12.5217789379
 30
0.0
 10
6.1494335445
 20
12.5210754421
 30
0.0
 10
6.136415075
 20
12.5202638109
 30
0.0
 10
6.1198341503
 20
12.519494046
 30
0.0
 10
6.0996798203
 20
12.5189372677
 30
0.0
 10
6.0793290364
 20
12.5187452695
 30
0.0
 10
6.058978234
 20
12.5189371859
 30
0.0
 10
6.0388238416
 20
12.5194938864
 30
0.0
 10
6.02224284
 20
12.5202635848
 30
0.0
 10
6.0092242867
 20
12.521075157
 30
0.0
 10
5.9996970306
 20
12.5217786129
 30
0.0
 10
5.9903638537
 20
12.522573182
 30
0.0
 10
5.9783633846
 20
12.5237261818
 30
0.0
 10
5.9666965875
 20
12.5250432462
 30
0.0
 10
5.9553988844
 20
12.5265572245
 30
0.0
 10
5.9473509254
 20
12.5277575079
 30
0.0
 10
5.9396213142
 20
12.5290479174
 30
0.0
 10
5.9322309536
 20
12.530428325
 30
0.0
 10
5.9251982494
 20
12.5318856486
 30
0.0
 10
5.9185377818
 20
12.5334022945
 30
0.0
 10
5.9122633932
 20
12.5349748096
 30
0.0
 10
5.9063898263
 20
12.5366105308
 30
0.0
 10
5.9009289961
 20
12.5383078153
 30
0.0
 10
5.8958936548
 20
12.5400691217
 30
0.0
 10
5.8912977848
 20
12.541899119
 30
0.0
 10
5.8871572177
 20
12.5437985871
 30
0.0
 10
5.8834814726
 20
12.545750046
 30
0.0
 10
5.880271838
 20
12.5477317502
 30
0.0
 10
5.8775341859
 20
12.5497448326
 30
0.0
 10
5.8752736004
 20
12.551795284
 30
0.0
 10
5.8734935789
 20
12.5538880327
 30
0.0
 10
5.8722022362
 20
12.5560314251
 30
0.0
 10
5.8714170365
 20
12.5582280661
 30
0.0
 10
5.8712410655
 20
12.5597286144
 30
0.0
 10
5.8712410115
 20
12.5604622942
 30
0.0
  0
SPLINE
  5
271
100
AcDbEntity
  8
DEFAULT_2
100
AcDbSpline
 62
8
  6
HIDDEN
 70
0
 71
3
 72
57
 73
53
 74
0
 42
0.0000001
 43
0.0000001
 44
0.0000000001
 40
0.0
 40
0.0
 40
0.0
 40
0.0
 40
0.005014907
 40
0.0102743871
 40
0.0159868565
 40
0.0223170618
 40
0.029381306
 40
0.0372573794
 40
0.0459994276
 40
0.0556380795
 40
0.0661729052
 40
0.0775910844
 40
0.0898844005
 40
0.1030437193
 40
0.1318930555
 40
0.1475467054
 40
0.1639866498
 40
0.1811775463
 40
0.199077487
 40
0.2176449686
 40
0.236841326
 40
0.2769552972
 40
0.3190857269
 40
0.3628635341
 40
0.4078797185
 40
0.4537272672
 40
0.4999961317
 40
0.5462650477
 40
0.5921127132
 40
0.6371291279
 40
0.6809072348
 40
0.7230380569
 40
0.7631524797
 40
0.7823490969
 40
0.8009168681
 40
0.8188171033
 40
0.8360083168
 40
0.8524486017
 40
0.8681025823
 40
0.8969526362
 40
0.9101123187
 40
0.9224060436
 40
0.9338245612
 40
0.9443598308
 40
0.9539988293
 40
0.9627413759
 40
0.9706178394
 40
0.9776826065
 40
0.9840136383
 40
0.9897268947
 40
0.9949876716
 40
1.0
 40
1.0
 40
1.0
 40
1.0
 10
5.8712410115
 20
12.5604619021
 30
0.0
 10
5.8712410032
 20
12.5611992668
 30
0.0
 10
5.8714195456
 20
12.5627150323
 30
0.0
 10
5.8722059258
 20
12.5649470242
 30
0.0
 10
5.8734951103
 20
12.5671548451
 30
0.0
 10
5.8752725397
 20
12.5693416136
 30
0.0
 10
5.8775307893
 20
12.5715141776
 30
0.0
 10
5.8802666368
 20
12.5736753349
 30
0.0
 10
5.8834753359
 20
12.5758276864
 30
0.0
 10
5.887150889
 20
12.5779694829
 30
0.0
 10
5.8912919675
 20
12.5800786625
 30
0.0
 10
5.8958882474
 20
12.5821394578
 30
0.0
 10
5.9009245279
 20
12.5841495799
 30
0.0
 10
5.9084404101
 20
12.5868478225
 30
0.0
 10
5.9165497419
 20
12.5893387871
 30
0.0
 10
5.9251995385
 20
12.5916797767
 30
0.0
 10
5.9322340764
 20
12.5934224173
 30
0.0
 10
5.9396260971
 20
12.5950879619
 30
0.0
 10
5.947357155
 20
12.5966644226
 30
0.0
 10
5.9554064888
 20
12.5981481273
 30
0.0
 10
5.9667011125
 20
12.6000352205
 30
0.0
 10
5.9814696672
 20
12.6021392585
 30
0.0
 10
5.9998809497
 20
12.6042493054
 30
0.0
 10
6.0190616805
 20
12.6059140879
 30
0.0
 10
6.0388247269
 20
12.6071073517
 30
0.0
 10
6.0589767181
 20
12.6078352129
 30
0.0
 10
6.0793246259
 20
12.6080838925
 30
0.0
 10
6.0996725523
 20
12.6078353193
 30
0.0
 10
6.1198246058
 20
12.6071075602
 30
0.0
 10
6.1395877536
 20
12.6059143986
 30
0.0
 10
6.1587686293
 20
12.6042497178
 30
0.0
 10
6.1771800914
 20
12.6021397598
 30
0.0
 10
6.1919488185
 20
12.6000357833
 30
0.0
 10
6.2032436033
 20
12.598148761
 30
0.0
 10
6.2112930687
 20
12.5966650854
 30
0.0
 10
6.2190242698
 20
12.5950886654
 30
0.0
 10
6.2264164479
 20
12.5934231806
 30
0.0
 10
6.2334511305
 20
12.5916805216
 30
0.0
 10
6.2421011639
 20
12.5893396238
 30
0.0
 10
6.2502107038
 20
12.5868486344
 30
0.0
 10
6.2577268499
 20
12.5841504752
 30
0.0
 10
6.2627632859
 20
12.5821403066
 30
0.0
 10
6.2673598105
 20
12.5800796264
 30
0.0
 10
6.271501043
 20
12.5779703857
 30
0.0
 10
6.2751768585
 20
12.5758286611
 30
0.0
 10
6.2783857103
 20
12.5736762124
 30
0.0
 10
6.2811218668
 20
12.5715151211
 30
0.0
 10
6.2833804094
 20
12.5693424732
 30
0.0
 10
6.2851580404
 20
12.5671554906
 30
0.0
 10
6.2864477052
 20
12.5649474062
 30
0.0
 10
6.2872335802
 20
12.5627153411
 30
0.0
 10
6.2874125994
 20
12.5611998552
 30
0.0
 10
6.2874126534
 20
12.5604628696
 30
0.0
  0
SPLINE
  5
272
100
AcDbEntity
  8
DEFAULT_2
100
AcDbSpline
 62
8
  6
HIDDEN
 70
0
 71
3
 72
44
 73
40
 74
0
 42
0.0000001
 43
0.0000001
 44
0.0000000001
 40
0.0
 40
0.0
 40
0.0
 40
0.0
 40
0.000076372
 40
0.0003052446
 40
0.0006862538
 40
0.0012190361
 40
0.0019032277
 40
0.0027384617
 40
0.0048605801
 40
0.007582436
 40
0.0109010598
 40
0.0148134703
 40
0.0193166907
 40
0.0300837113
 40
0.0431787417
 40
0.058577301
 40
0.0762565763
 40
0.0961842073
 40
0.1183022282
 40
0.1425424931
 40
0.1688374469
 40
0.1971205519
 40
0.2273258388
 40
0.2593862054
 40
0.2932363209
 40
0.3288016376
 40
0.3659893694
 40
0.404698096
 40
0.4448286427
 40
0.4862831552
 40
0.5289642505
 40
0.572774182
 40
0.6176143429
 40
0.663381022
 40
0.7099589297
 40
0.7572309964
 40
0.8050826707
 40
0.9020672055
 40
1.0
 40
1.0
 40
1.0
 40
1.0
 10
13.5882408468
 20
5.2622237158
 30
0.0
 10
13.5882407741
 20
5.2622290225
 30
0.0
 10
13.5882474308
 20
5.2622496149
 30
0.0
 10
13.5882539258
 20
5.2622966664
 30
0.0
 10
13.5882703849
 20
5.2623745114
 30
0.0
 10
13.5882906988
 20
5.2624836205
 30
0.0
 10
13.5883177968
 20
5.2626236597
 30
0.0
 10
13.5883652299
 20
5.2628722203
 30
0.0
 10
13.588439247
 20
5.263259884
 30
0.0
 10
13.588545105
 20
5.2638171496
 30
0.0
 10
13.5886739323
 20
5.2644966921
 30
0.0
 10
13.5888256328
 20
5.2652978918
 30
0.0
 10
13.5890735831
 20
5.2666076675
 30
0.0
 10
13.5894409023
 20
5.2685442963
 30
0.0
 10
13.5899509339
 20
5.2712244933
 30
0.0
 10
13.5905574937
 20
5.2743752822
 30
0.0
 10
13.5912625149
 20
5.2779906315
 30
0.0
 10
13.5920577228
 20
5.2820641359
 30
0.0
 10
13.592934116
 20
5.2865863311
 30
0.0
 10
13.5938890693
 20
5.2915440061
 30
0.0
 10
13.5949264569
 20
5.2969221013
 30
0.0
 10
13.5960467195
 20
5.3027063706
 30
0.0
 10
13.5972495455
 20
5.3088827437
 30
0.0
 10
13.5985435362
 20
5.3154354752
 30
0.0
 10
13.599927702
 20
5.3223500407
 30
0.0
 10
13.6013879651
 20
5.3296127454
 30
0.0
 10
13.6029070246
 20
5.3372080171
 30
0.0
 10
13.6044827323
 20
5.3451154847
 30
0.0
 10
13.6061227067
 20
5.3533124804
 30
0.0
 10
13.607824889
 20
5.3617785453
 30
0.0
 10
13.6095919797
 20
5.3704923557
 30
0.0
 10
13.6114291282
 20
5.3794320001
 30
0.0
 10
13.6133377404
 20
5.3885758103
 30
0.0
 10
13.6152973058
 20
5.3979054654
 30
0.0
 10
13.6172841735
 20
5.4074020692
 30
0.0
 10
13.6193003311
 20
5.4170405729
 30
0.0
 10
13.6220455897
 20
5.4301052212
 30
0.0
 10
13.6255468887
 20
5.4466084171
 30
0.0
 10
13.6284302397
 20
5.4598432179
 30
0.0
 10
13.6298936852
 20
5.4664895407
 30
0.0
  0
SPLINE
  5
273
100
AcDbEntity
  8
0
100
AcDbSpline
 62
7
  6
CONTINUOUS
 70
0
 71
3
 72
43
 73
39
 74
0
 42
0.0000001
 43
0.0000001
 44
0.0000000001
 40
0.0
 40
0.0
 40
0.0
 40
0.0
 40
0.0979217239
 40
0.1949016431
 40
0.242752233
 40
0.2900244583
 40
0.336603024
 40
0.3823705942
 40
0.4272117277
 40
0.4710225822
 40
0.5551600377
 40
0.5952915327
 40
0.6340011924
 40
0.6711898235
 40
0.7067560123
 40
0.7406069862
 40
0.7726681538
 40
0.8311580263
 40
0.8816945923
 40
0.903813202
 40
0.9237413731
 40
0.941421124
 40
0.9568201009
 40
0.9699154793
 40
0.9755915919
 40
0.9806827904
 40
0.9851861334
 40
0.9890986508
 40
0.9924173653
 40
0.9951392949
 40
0.9972614697
 40
0.9980967256
 40
0.9987809346
 40
0.9993137301
 40
0.9996947486
 40
0.9998282278
 40
0.9999236264
 40
1.0
 40
1.0
 40
1.0
 40
1.0
 10
13.6298946521
 20
5.4664892732
 30
0.0
 10
13.6284304707
 20
5.4598439024
 30
0.0
 10
13.6255469301
 20
5.446610259
 30
0.0
 10
13.6220463117
 20
5.4301081156
 30
0.0
 10
13.6193010869
 20
5.417043858
 30
0.0
 10
13.617284779
 20
5.4074054079
 30
0.0
 10
13.6152980429
 20
5.3979086583
 30
0.0
 10
13.6133383339
 20
5.3885788572
 30
0.0
 10
13.611429768
 20
5.3794348424
 30
0.0
 10
13.6090126132
 20
5.3676731725
 30
0.0
 10
13.6067051284
 20
5.3562231637
 30
0.0
 10
13.6044831262
 20
5.3451175885
 30
0.0
 10
13.6029074359
 20
5.3372099223
 30
0.0
 10
13.6013882739
 20
5.329614482
 30
0.0
 10
13.5999280543
 20
5.3223515846
 30
0.0
 10
13.5985437157
 20
5.3154368759
 30
0.0
 10
13.5968694561
 20
5.3069556144
 30
0.0
 10
13.5950031671
 20
5.2973304225
 30
0.0
 10
13.593281577
 20
5.2883809986
 30
0.0
 10
13.5920578765
 20
5.2820646534
 30
0.0
 10
13.5912625843
 20
5.2779910531
 30
0.0
 10
13.590557563
 20
5.2743756035
 30
0.0
 10
13.5899509708
 20
5.2712247339
 30
0.0
 10
13.5895070961
 20
5.2688920195
 30
0.0
 10
13.5891978169
 20
5.267262854
 30
0.0
 10
13.5890002447
 20
5.2662202222
 30
0.0
 10
13.5888256472
 20
5.2652979735
 30
0.0
 10
13.588673942
 20
5.2644967515
 30
0.0
 10
13.5885451178
 20
5.2638171916
 30
0.0
 10
13.5884392382
 20
5.2632599087
 30
0.0
 10
13.588365263
 20
5.2628722402
 30
0.0
 10
13.5883177614
 20
5.2626236649
 30
0.0
 10
13.5882908037
 20
5.2624836397
 30
0.0
 10
13.5882701247
 20
5.2623744825
 30
0.0
 10
13.5882557966
 20
5.2623032289
 30
0.0
 10
13.5882485343
 20
5.2622613276
 30
0.0
 10
13.588243171
 20
5.262241001
 30
0.0
 10
13.5882435008
 20
5.2622283119
 30
0.0
 10
13.5882408468
 20
5.2622237158
 30
0.0
  0
SPLINE
  5
274
100
AcDbEntity
  8
0
100
AcDbSpline
 62
7
  6
CONTINUOUS
 70
0
 71
3
 72
34
 73
30
 74
0
 42
0.0000001
 43
0.0000001
 44
0.0000000001
 40
0.0
 40
0.0
 40
0.0
 40
0.0
 40
0.0012177392
 40
0.0027355049
 40
0.0048552667
 40
0.0108889365
 40
0.0192951723
 40
0.0300506637
 40
0.0431325921
 40
0.0761828896
 40
0.1181993095
 40
0.1687044967
 40
0.2271684658
 40
0.2592205332
 40
0.2930653296
 40
0.3286276757
 40
0.3658142856
 40
0.4045239664
 40
0.4446579246
 40
0.4861183618
 40
0.5288078504
 40
0.5726284884
 40
0.6174813256
 40
0.6632621499
 40
0.7098552904
 40
0.7571435113
 40
0.8050120431
 40
0.902031577
 40
1.0
 40
1.0
 40
1.0
 40
1.0
 10
13.6774321557
 20
5.6693265861
 30
0.0
 10
13.6774092993
 20
5.6692451644
 30
0.0
 10
13.6773658371
 20
5.6690601545
 30
0.0
 10
13.6772815566
 20
5.6687336906
 30
0.0
 10
13.677118276
 20
5.6680821841
 30
0.0
 10
13.6768374438
 20
5.6669669824
 30
0.0
 10
13.6764126174
 20
5.6652695732
 30
0.0
 10
13.6758688147
 20
5.6630973671
 30
0.0
 10
13.6749109858
 20
5.6592645206
 30
0.0
 10
13.6734163218
 20
5.6533280828
 30
0.0
 10
13.6713026305
 20
5.6448674349
 30
0.0
 10
13.6688040007
 20
5.634683884
 30
0.0
 10
13.6664868831
 20
5.6251683639
 30
0.0
 10
13.6644429532
 20
5.6167771501
 30
0.0
 10
13.6627738967
 20
5.6099315897
 30
0.0
 10
13.6610285204
 20
5.6027376097
 30
0.0
 10
13.6592234321
 20
5.5952104828
 30
0.0
 10
13.6573649718
 20
5.5873697004
 30
0.0
 10
13.65545042
 20
5.5792371958
 30
0.0
 10
13.6534850544
 20
5.5708327198
 30
0.0
 10
13.6514697414
 20
5.5621769924
 30
0.0
 10
13.6494026356
 20
5.5532914287
 30
0.0
 10
13.6472850846
 20
5.5441971831
 30
0.0
 10
13.6451359369
 20
5.5349125979
 30
0.0
 10
13.6429789574
 20
5.5254562661
 30
0.0
 10
13.6408153127
 20
5.5158527899
 30
0.0
 10
13.6379064675
 20
5.502827461
 30
0.0
 10
13.6342697871
 20
5.4863584031
 30
0.0
 10
13.6313550371
 20
5.473134382
 30
0.0
 10
13.6298942606
 20
5.4664893815
 30
0.0
  0
ELLIPSE
  5
275
100
AcDbEntity
  8
03___PRT_ALL_CURVES
100
AcDbEllipse
 62
8
  6
HIDDEN
 10
13.7963626306
 20
6.067762171
 30
0.0
 11
-0.0
 21
-0.4161716427
 31
0.0
 40
1.0
 41
9.4247779608
 42
12.2862348164
  0
ELLIPSE
  5
276
100
AcDbEntity
  8
03___PRT_ALL_CURVES
100
AcDbEllipse
 62
4
  6
CONTINUOUS
 10
13.7963626306
 20
6.067762171
 30
0.0
 11
-0.0
 21
-0.4161716427
 31
0.0
 40
1.0
 41
6.0030495092
 42
6.2831853072
  0
ENDSEC
  0
SECTION
  2
OBJECTS
  0
DICTIONARY
  5
C
100
AcDbDictionary
280
0
281
1
  3
ACAD_GROUP
350
D
  3
ACAD_MLINESTYLE
350
17
  3
ACAD_LAYOUT
350
1A
  3
ACAD_PLOTSETTINGS
350
19
  3
ACAD_PLOTSTYLENAME
350
E
  0
DICTIONARY
  5
D
102
{ACAD_REACTORS
330
C
102
}
100
AcDbDictionary
280
0
281
1
  0
ACDBDICTIONARYWDFLT
  5
E
102
{ACAD_REACTORS
330
C
102
}
100
AcDbDictionary
281
1
  3
Normal
350
F
100
AcDbDictionaryWithDefault
340
F
  0
DICTIONARY
  5
17
102
{ACAD_REACTORS
330
C
102
}
100
AcDbDictionary
280
0
281
1
  3
Standard
350
18
  0
DICTIONARY
  5
19
102
{ACAD_REACTORS
330
C
102
}
100
AcDbDictionary
281
1
  0
DICTIONARY
  5
1A
102
{ACAD_REACTORS
330
C
102
}
100
AcDbDictionary
281
1
  3
Model
350
277
  3
Layout1
350
278
  0
ACDBPLACEHOLDER
  5
F
102
{ACAD_REACTORS
330
E
102
}
  0
MLINESTYLE
  5
18
102
{ACAD_REACTORS
330
17
102
}
100
AcDbMlineStyle
  2
STANDARD
 70
0
  3

 62
256
 51
90.0
 52
90.0
 71
2
 49
0.5
 62
256
  6
BYLAYER
 49
-0.5
 62
256
  6
BYLAYER
  0
LAYOUT
  5
277
102
{ACAD_REACTORS
330
1A
102
}
100
AcDbPlotSettings
  1

  2
none_device
  4
ANSI_C_(22.00_x_17.00_Inches)
  6

 40
0.0
 41
0.0
 42
0.0
 43
0.0
 44
558.8
 45
431.8
 46
0.0
 47
0.0
 48
0.0
 49
0.0
140
0.0
141
0.0
142
1.0
143
1.0
 70
1024
 72
0
 73
0
 74
0
  7

 75
0
147
1.0
148
0.0
149
0.0
100
AcDbLayout
  1
Model
 70
0
 71
0
 10
0.0
 20
0.0
 11
22.0
 21
17.0
 12
0.0
 22
0.0
 32
0.0
 14
0.0
 24
0.0
 34
0.0
 15
0.0
 25
0.0
 35
0.0
146
0.0
 13
0.0
 23
0.0
 33
0.0
 16
1.0
 26
0.0
 36
0.0
 17
0.0
 27
1.0
 37
0.0
 76
0
330
208
345
0
346
0
  0
LAYOUT
  5
278
102
{ACAD_REACTORS
330
1A
102
}
100
AcDbPlotSettings
  1

  2
none_device
  4
ANSI_C_(22.00_x_17.00_Inches)
  6

 40
0.0
 41
0.0
 42
0.0
 43
0.0
 44
558.8
 45
431.8
 46
0.0
 47
0.0
 48
0.0
 49
0.0
140
0.0
141
0.0
142
1.0
143
1.0
 70
0
 72
0
 73
0
 74
0
  7

 75
0
147
1.0
148
0.0
149
0.0
100
AcDbLayout
  1
Layout1
 70
0
 71
1
 10
0.0
 20
0.0
 11
22.0
 21
17.0
 12
0.0
 22
0.0
 32
0.0
 14
0.0
 24
0.0
 34
0.0
 15
0.0
 25
0.0
 35
0.0
146
0.0
 13
0.0
 23
0.0
 33
0.0
 16
1.0
 26
0.0
 36
0.0
 17
0.0
 27
1.0
 37
0.0
 76
0
330
209
345
0
346
0
  0
ENDSEC
  0
EOF
